<?xml version="1.0" standalone="no"?><!DOCTYPE svg PUBLIC "-//W3C//DTD SVG 1.1//EN" "http://www.w3.org/Graphics/SVG/1.1/DTD/svg11.dtd"><svg t="1628868936560" class="icon" viewBox="0 0 1053 1024" version="1.1" xmlns="http://www.w3.org/2000/svg" p-id="3576" xmlns:xlink="http://www.w3.org/1999/xlink" width="205.6640625" height="200"><defs><style type="text/css"></style></defs><path d="M763.279433 4.357447v1016.737588H5.809929V466.246809l2.178723-14.524823L71.897872 4.357447h691.381561z" fill="#E1ECFA" p-id="3577"></path><path d="M763.279433 4.357447v1016.737588H527.977305V466.246809l65.361702-461.889362h169.940426zM76.98156 600.601418h193.906383v92.958866H76.98156z" fill="#C5DCFA" p-id="3578"></path><path d="M156.868085 70.44539h331.165958c14.524823 0 24.692199 12.346099 22.513475 26.870922l-34.133334 221.503546c-1.452482 11.619858-11.619858 19.608511-23.239716 19.608511l-330.439716-2.178724c-13.798582 0-24.692199-12.346099-22.513475-26.870922l34.133333-219.324822c1.452482-11.619858 10.893617-19.608511 22.513475-19.608511z" fill="#3973F4" p-id="3579"></path><path d="M541.775887 466.246809c0 7.988652-6.53617 14.524823-14.524823 14.524822H5.083688v-14.524822l2.178723-14.524823h519.988653c8.714894 0 14.524823 6.53617 14.524823 14.524823z" fill="#C5DCFA" p-id="3580"></path><path d="M450.995745 413.957447H270.887943c-7.988652 0-14.524823-6.53617-14.524822-14.524823s6.53617-14.524823 14.524822-14.524823h180.107802c7.988652 0 14.524823 6.53617 14.524822 14.524823s-6.53617 14.524823-14.524822 14.524823z" fill="#3973F4" p-id="3581"></path><path d="M305.021277 187.370213c-6.53617-2.178723-14.524823-3.631206-17.429788-6.53617-5.083688-4.357447-4.357447-12.346099-0.726241-16.703547 6.53617-7.988652 21.060993-5.809929 37.764539 6.536171 6.53617 4.357447 15.977305 2.904965 20.334752-3.631206 4.357447-6.53617 2.904965-15.977305-3.631206-20.334752-7.988652-5.809929-15.251064-9.441135-22.513475-12.346099L319.546099 123.460993c0.726241-7.988652-5.809929-14.524823-13.798581-15.251064-7.988652-0.726241-14.524823 5.809929-15.251064 13.798582l-0.726241 8.714893c-11.619858 2.178723-20.334752 7.988652-25.41844 14.524823-13.798582 16.703546-11.619858 42.121986 4.357447 56.646808 7.988652 7.262411 18.88227 10.167376 29.049645 13.072341 19.608511 5.083688 20.334752 7.262411 19.608511 13.798581-0.726241 4.357447-2.178723 10.167376-10.167376 11.619859-10.167376 2.178723-23.239716-2.178723-28.323404-10.893617-4.357447-6.53617-13.07234-8.714894-20.334752-4.357447-6.53617 4.357447-8.714894 13.07234-4.357447 20.334752 6.53617 10.167376 16.703546 17.429787 29.049646 21.787234l-0.726242 10.167375c-0.726241 7.988652 5.809929 14.524823 13.798582 15.251064 7.988652 0.726241 14.524823-5.809929 15.251064-13.798581L312.283688 268.70922h1.452482c18.156028-4.357447 30.502128-18.156028 32.680851-37.038298 2.178723-31.95461-26.144681-39.943262-41.395744-44.300709z" fill="#FFFFFF" p-id="3582"></path><path d="M1021.095035 1018.916312h-348.595744c-17.429787 0-31.95461-14.524823-31.95461-31.95461V417.588652C640.544681 400.158865 655.069504 385.634043 672.499291 385.634043h348.595744c17.429787 0 31.95461 14.524823 31.95461 31.954609v569.37305c0 18.156028-13.798582 31.95461-31.95461 31.95461z" fill="#4988FD" p-id="3583"></path><path d="M890.371631 385.634043h76.255319v633.282269H890.371631z" fill="#3973F4" p-id="3584"></path><path d="M756.743262 752.385816v-58.099291c0-5.809929 5.083688-10.893617 10.893617-10.893617s10.893617 5.083688 10.893617 10.893617v58.099291c0 5.809929-5.083688 10.893617-10.893617 10.893617s-10.893617-4.357447-10.893617-10.893617zM756.743262 658.700709V464.068085c0-5.809929 5.083688-10.893617 10.893617-10.893617s10.893617 5.083688 10.893617 10.893617v194.632624c0 5.809929-5.083688 10.893617-10.893617 10.893617s-10.893617-5.083688-10.893617-10.893617zM711.716312 551.217021v-87.148936c0-5.809929 5.083688-10.893617 10.893617-10.893617s10.893617 5.083688 10.893617 10.893617v87.148936c0 5.809929-5.083688 10.893617-10.893617 10.893617s-10.893617-5.083688-10.893617-10.893617z" fill="#C5DCFA" p-id="3585"></path><path d="M723.33617 925.957447m-42.121986 0a42.121986 42.121986 0 1 0 84.243972 0 42.121986 42.121986 0 1 0-84.243972 0Z" fill="#3973F4" p-id="3586"></path><path d="M723.33617 870.763121m-42.121986 0a42.121986 42.121986 0 1 0 84.243972 0 42.121986 42.121986 0 1 0-84.243972 0Z" fill="#6097FD" p-id="3587"></path></svg>