<?xml version="1.0" standalone="no"?><!DOCTYPE svg PUBLIC "-//W3C//DTD SVG 1.1//EN" "http://www.w3.org/Graphics/SVG/1.1/DTD/svg11.dtd"><svg t="1628869275811" class="icon" viewBox="0 0 1024 1024" version="1.1" xmlns="http://www.w3.org/2000/svg" p-id="1845" xmlns:xlink="http://www.w3.org/1999/xlink" width="200" height="200"><defs><style type="text/css"></style></defs><path d="M800.189 800.19c0 114.95-93.184 208.136-208.136 208.136 0 0 1.866-202.802 208.136-208.136z" fill="#F5A5C7" p-id="1846"></path><path d="M223.813 800.19c0 114.95 93.186 208.136 208.136 208.136 0 0-1.866-202.802-208.136-208.136z" fill="#FAD2E3" p-id="1847"></path><path d="M800.189 15.674H79.719v272.178h144.094v512.336c114.95 0 208.136 93.186 208.136 208.136h160.104c0-114.95 93.186-208.136 208.136-208.136V287.852h144.094V15.674h-144.094z" fill="#86CBED" p-id="1848"></path><path d="M512.007 175.788m-160.114 0a160.114 160.114 0 1 0 320.228 0 160.114 160.114 0 1 0-320.228 0Z" fill="#F5A5C7" p-id="1849"></path><path d="M431.939 944.278h160.114v64.042h-160.114zM880.243 15.674h64.042v272.18h-64.042zM80.747 15.674h64.044v272.18H80.747z" fill="#297FA9" p-id="1850"></path><path d="M512.001 335.884c-88.424 0-160.104-71.68-160.104-160.104S423.577 15.674 512.001 15.674" fill="#FAD2E3" p-id="1851"></path><path d="M223.819 479.986h576.376v176.124H223.819z" fill="#297FA9" p-id="1852"></path><path d="M223.819 415.928h576.376v64.042H223.819zM223.819 656.09h576.376v64.042H223.819zM447.971 15.674h128.074V95.72h-128.074z" fill="#FFFFFF" p-id="1853"></path><path d="M128.077 111.73h31.35v32.02H128.077zM128.077 63.708h31.35v32.02H128.077zM128.077 159.758h31.35v32.02H128.077zM128.077 207.808h31.35v32.02H128.077zM864.567 111.73h31.35v32.02h-31.35zM864.567 63.708h31.35v32.02h-31.35zM864.567 159.758h31.35v32.02h-31.35zM864.567 207.808h31.35v32.02h-31.35zM479.989 928.602h64.042v31.35h-64.042z" fill="#1D1D1B" p-id="1854"></path><path d="M64.043 0v303.526h144.094v512.336c7.714 110.942 97.192 200.422 208.136 208.136h191.454c110.942-7.712 200.422-97.192 208.136-208.136V303.526h144.094V0H64.043z m399.592 39.708c15.132-5.396 31.406-8.358 48.366-8.358s33.238 2.962 48.368 8.358v40.346h-96.736l0.002-40.346z m128.084 71.694v-55.98c38.966 25.894 64.712 70.17 64.712 120.358 0 79.638-64.792 144.428-144.43 144.428s-144.428-64.79-144.428-144.428c0-50.192 25.746-94.466 64.712-120.358v55.98h159.434zM240.191 816.568c93.084 7.884 167.496 82.294 175.38 175.38-93.086-7.884-167.498-82.296-175.38-175.38z m350.864 112.04h-31.022v31.35h21.626a222.638 222.638 0 0 0-4.736 32.692h-129.84a222.866 222.866 0 0 0-4.736-32.692h21.626v-31.35h-31.022c-30.414-79.51-104.932-137.394-193.46-143.552v-49.246h545.028v49.246c-88.534 6.16-163.05 64.044-193.464 143.552z m193.46-432.954v144.768H239.487v-144.768h545.028z m-545.028-31.35v-32.692h545.028v32.692H239.487z m545.028 207.466v32.692H239.487v-32.692h545.028z m-176.082 320.176c7.882-93.084 82.294-167.496 175.38-175.38-7.884 93.086-82.296 167.498-175.38 175.38z m320.178-719.768h-32.694v-16.346h-31.35v16.346h-80.052v128.084H239.487v-128.084H159.435v-16.346H128.085v16.346H95.393V31.35h32.692v16.346h31.35v-16.346h252.544C366.243 63.122 336.221 115.996 336.221 175.78c0 96.926 78.854 175.778 175.778 175.778s175.78-78.854 175.78-175.778c0-59.782-30.022-112.658-75.758-144.43h252.546v16.346h31.35v-16.346h32.692v240.828h0.002z" fill="#1D1D1B" p-id="1855"></path></svg>