<?xml version="1.0" standalone="no"?><!DOCTYPE svg PUBLIC "-//W3C//DTD SVG 1.1//EN" "http://www.w3.org/Graphics/SVG/1.1/DTD/svg11.dtd"><svg t="1628869354014" class="icon" viewBox="0 0 1170 1024" version="1.1" xmlns="http://www.w3.org/2000/svg" p-id="2675" xmlns:xlink="http://www.w3.org/1999/xlink" width="228.515625" height="200"><defs><style type="text/css"></style></defs><path d="M661.12 468.059429A255.744 255.744 0 0 1 548.571429 256c0-141.385143 114.614857-256 256-256s256 114.614857 256 256c0 88.228571-44.617143 166.034286-112.548572 212.059429C1078.692571 523.830857 1170.285714 653.531429 1170.285714 804.571429c0 183.588571-92.873143 219.428571-365.714285 219.428571s-365.714286-35.84-365.714286-219.428571c0-151.058286 91.593143-280.722286 222.262857-336.512z m-327.862857 43.702857c-1.334857 0.164571-2.724571 0.237714-4.114286 0.237714-142.390857 0-256 99.401143-256 219.428571 0 98.706286 81.481143 144.091429 244.534857 146.212572a36.571429 36.571429 0 0 1-0.950857 73.142857C118.930286 948.187429 0 881.974857 0 731.428571c0-122.569143 84.150857-226.468571 202.934857-270.299428A218.971429 218.971429 0 0 1 123.977143 292.571429c0-121.179429 98.249143-219.428571 219.428571-219.428572 43.337143 0 84.882286 12.617143 120.356572 35.931429a36.571429 36.571429 0 1 1-40.155429 61.129143A145.408 145.408 0 0 0 343.405714 146.285714a146.285714 146.285714 0 1 0 0 292.571429c35.108571 0 68.205714-12.361143 94.445715-34.56a36.571429 36.571429 0 1 1 47.250285 55.826286 218.660571 218.660571 0 0 1-151.844571 51.638857zM804.571429 438.857143c100.992 0 182.857143-81.865143 182.857142-182.857143S905.563429 73.142857 804.571429 73.142857 621.714286 155.008 621.714286 256s81.865143 182.857143 182.857143 182.857143z m0 512c235.282286 0 292.571429-22.125714 292.571428-146.285714 0-161.590857-130.980571-292.571429-292.571428-292.571429s-292.571429 130.980571-292.571429 292.571429c0 124.16 57.289143 146.285714 292.571429 146.285714z" p-id="2676" fill="#d4237a"></path></svg>