<?xml version="1.0" standalone="no"?><!DOCTYPE svg PUBLIC "-//W3C//DTD SVG 1.1//EN" "http://www.w3.org/Graphics/SVG/1.1/DTD/svg11.dtd"><svg t="1628685787681" class="icon" viewBox="0 0 1098 1024" version="1.1" xmlns="http://www.w3.org/2000/svg" p-id="5772" xmlns:xlink="http://www.w3.org/1999/xlink" width="214.453125" height="200"><defs><style type="text/css"></style></defs><path d="M438.88 658.272l219.424 0 0-54.848-73.152 0 0-256-65.152 0-84.576 78.272 44 45.728q24-21.152 31.424-32.576l1.152 0 0 164.576-73.152 0 0 54.848zM731.456 512q0 40-12 81.152t-34.016 76.576-58.016 57.728-78.848 22.272-78.848-22.272-58.016-57.728-34.016-76.576-12-81.152 12-81.152 34.016-76.576 58.016-57.728 78.848-22.272 78.848 22.272 58.016 57.728 34.016 76.576 12 81.152zM1024.032 658.272l0-292.576q-60.576 0-103.424-42.848t-42.848-103.424l-658.272 0q0 60.576-42.848 103.424t-103.424 42.848l0 292.576q60.576 0 103.424 42.848t42.848 103.424l658.272 0q0-60.576 42.848-103.424t103.424-42.848zM1097.184 182.848l0 658.272q0 14.848-10.848 25.728t-25.728 10.848l-1024 0q-14.848 0-25.728-10.848t-10.848-25.728l0-658.272q0-14.848 10.848-25.728t25.728-10.848l1024 0q14.848 0 25.728 10.848t10.848 25.728z" p-id="5773"></path></svg>