<?xml version="1.0" standalone="no"?><!DOCTYPE svg PUBLIC "-//W3C//DTD SVG 1.1//EN" "http://www.w3.org/Graphics/SVG/1.1/DTD/svg11.dtd"><svg t="1628869428988" class="icon" viewBox="0 0 1024 1024" version="1.1" xmlns="http://www.w3.org/2000/svg" p-id="5382" xmlns:xlink="http://www.w3.org/1999/xlink" width="200" height="200"><defs><style type="text/css"></style></defs><path d="M123.733333 447.530667c-62.293333-113.066667-6.485333-241.621333 101.930667-311.765334a99.285333 99.285333 0 0 1 133.973333 24.661334l64.341334 87.722666a128 128 0 0 1 11.306666 132.906667l-17.493333 34.986667a35.072 35.072 0 0 0-0.682667 31.872c9.386667 18.346667 29.525333 50.816 68.181334 89.514666 38.698667 38.698667 71.210667 58.794667 89.514666 68.224 10.069333 5.162667 21.76 4.352 31.914667-0.682666l34.986667-17.493334a128 128 0 0 1 132.906666 11.264l87.722667 64.341334a99.285333 99.285333 0 0 1 24.618667 133.973333c-70.101333 108.416-198.656 164.266667-311.722667 101.973333-73.813333-40.661333-162.56-102.4-255.872-195.669333C226.133333 610.133333 164.352 521.386667 123.733333 447.573333z" fill="#d81e06" p-id="5383"></path><path d="M609.834667 353.834667a42.666667 42.666667 0 0 0 60.330666 60.330666L725.333333 358.997333l55.168 55.168a42.666667 42.666667 0 1 0 60.330667-60.330666L785.664 298.666667l55.168-55.168a42.666667 42.666667 0 1 0-60.330667-60.330667L725.333333 238.336l-55.168-55.168a42.666667 42.666667 0 1 0-60.330666 60.330667L665.002667 298.666667l-55.168 55.168z" fill="#d81e06" p-id="5384"></path></svg>