<?xml version="1.0" standalone="no"?><!DOCTYPE svg PUBLIC "-//W3C//DTD SVG 1.1//EN" "http://www.w3.org/Graphics/SVG/1.1/DTD/svg11.dtd"><svg t="1628513862468" class="icon" viewBox="0 0 1024 1024" version="1.1" xmlns="http://www.w3.org/2000/svg" p-id="1504" xmlns:xlink="http://www.w3.org/1999/xlink" width="200" height="200"><defs><style type="text/css"></style></defs><path d="M833.137778 203.406222H345.088V118.840889a9.102222 9.102222 0 0 0-14.734222-7.196445l-162.304 128a9.130667 9.130667 0 0 0 0 14.392889l162.304 128a9.102222 9.102222 0 0 0 14.734222-7.196444v-84.565333h474.282667V827.448889H126.862222a9.159111 9.159111 0 0 0-9.159111 9.130667v68.579555c0 5.034667 4.124444 9.159111 9.159111 9.159111h706.275556a73.216 73.216 0 0 0 73.159111-73.159111V276.565333a73.216 73.216 0 0 0-73.159111-73.159111z" p-id="1505" fill="#d81e06"></path></svg>