<?xml version="1.0" standalone="no"?><!DOCTYPE svg PUBLIC "-//W3C//DTD SVG 1.1//EN" "http://www.w3.org/Graphics/SVG/1.1/DTD/svg11.dtd"><svg t="1628869242975" class="icon" viewBox="0 0 1024 1024" version="1.1" xmlns="http://www.w3.org/2000/svg" p-id="2071" xmlns:xlink="http://www.w3.org/1999/xlink" width="200" height="200"><defs><style type="text/css"></style></defs><path d="M282.624 985.6L37.888 740.864a42.9568 42.9568 0 0 1 0-60.928L679.936 38.4c16.896-16.896 44.032-16.896 60.928 0l244.736 244.736c16.896 16.896 16.896 44.032 0 60.928L344.064 985.6c-16.896 16.896-44.544 16.896-61.44 0z m-152.576-274.944l183.296 183.296L893.952 313.344l-183.296-183.296L130.048 710.656z" fill="#d81e06" p-id="2072"></path><path d="M643.072 286.72l-60.928-61.44c-16.896-16.896-16.896-44.032 0-60.928s44.032-16.896 60.928 0l60.928 60.928c16.896 16.896 16.896 44.032 0 60.928a42.496 42.496 0 0 1-60.928 0.512zM597.504 454.656L475.136 332.288c-16.896-16.896-16.896-44.032 0-60.928s44.032-16.896 60.928 0l122.368 122.368c16.896 16.896 16.896 44.032 0 60.928-16.896 16.896-44.032 16.896-60.928 0zM429.056 500.736l-60.928-61.44a42.9568 42.9568 0 0 1 0-60.928c16.896-16.896 44.032-16.896 60.928 0l60.928 60.928c16.896 16.896 16.896 44.032 0 60.928a42.496 42.496 0 0 1-60.928 0.512zM383.488 668.672L261.12 546.304a42.9568 42.9568 0 0 1 0-60.928c16.896-16.896 44.032-16.896 60.928 0l122.368 122.368c16.896 16.896 16.896 44.032 0 60.928-16.896 16.896-44.032 16.896-60.928 0zM215.04 714.24l-60.928-60.928c-16.896-16.896-16.896-44.032 0-60.928s44.032-16.896 60.928 0l60.928 60.928c16.896 16.896 16.896 44.032 0 60.928-16.384 16.896-44.032 16.896-60.928 0z" fill="#d81e06" p-id="2073"></path></svg>