<?xml version="1.0" standalone="no"?><!DOCTYPE svg PUBLIC "-//W3C//DTD SVG 1.1//EN" "http://www.w3.org/Graphics/SVG/1.1/DTD/svg11.dtd"><svg t="1628250376847" class="icon" viewBox="0 0 1024 1024" version="1.1" xmlns="http://www.w3.org/2000/svg" p-id="1157" xmlns:xlink="http://www.w3.org/1999/xlink" width="200" height="200"><defs><style type="text/css"></style></defs><path d="M722.78528 289.28h134.144c8.875008 0 16.214016 2.731008 22.016 8.192 5.803008 5.460992 9.387008 12.628992 10.752 21.504l19.456 199.68h-65.536l-16.384-163.84h-104.448v98.304c0 9.556992-3.072 17.408-9.216 23.552s-13.993984 9.216-23.552 9.216c-9.556992 0-17.408-3.072-23.552-9.216s-9.216-13.995008-9.216-23.552v-98.304h-262.144v98.304c0 9.556992-3.072 17.408-9.216 23.552s-13.993984 9.216-23.552 9.216c-9.556992 0-17.408-3.072-23.552-9.216s-9.216-13.995008-9.216-23.552v-98.304h-104.448l-52.224 524.288h353.28v65.536h-390.144c-9.556992 0-17.577984-3.584-24.064-10.752-6.484992-7.168-9.044992-15.531008-7.68-25.088l58.368-589.824c1.366016-8.875008 4.950016-16.043008 10.752-21.504 5.803008-5.460992 13.142016-8.192 22.016-8.192h134.144v-22.528c1.366016-58.708992 20.48-107.52 57.344-146.432s83.286016-59.051008 139.264-60.416c55.979008 1.364992 102.4 21.504 139.264 60.416s55.979008 87.723008 57.344 146.432v22.528z m-65.536 0v-22.528c-0.681984-40.276992-13.481984-73.728-38.4-100.352-24.916992-26.624-55.808-40.276992-92.672-40.96-36.864 0.683008-67.753984 14.336-92.672 40.96-24.916992 26.624-37.716992 60.075008-38.4 100.352v22.528h262.144z m205.824 487.424c9.558016-8.875008 20.48-11.776 32.768-8.704s19.968 10.752 23.04 23.04 0.171008 22.868992-8.704 31.744l-131.072 131.072c-6.825984 6.827008-14.676992 10.24-23.552 10.24-8.873984 0-16.724992-3.412992-23.552-10.24l-131.072-131.072c-8.192-8.875008-10.752-19.284992-7.68-31.232 3.072-11.947008 10.582016-19.627008 22.528-23.04 11.947008-3.412992 22.699008-0.683008 32.256 8.192l74.752 75.776v-235.52c0-9.556992 3.072-17.408 9.216-23.552s13.995008-9.216 23.552-9.216c9.558016 0 17.408 3.072 23.552 9.216s9.216 13.995008 9.216 23.552v235.52l74.752-75.776z" p-id="1158" fill="#13227a"></path></svg>